<svg width="64" height="64" xmlns="http://www.w3.org/2000/svg">

 <g>
  <title>background</title>
  <rect fill="none" id="canvas_background" height="402" width="582" y="-1" x="-1"/>
 </g>
 <g>
  <title>Layer 1</title>
  <path stroke="null" id="svg_2" fill="#735538" d="m61.802631,32.815789c0,-10.81 -8.936319,-15.997 -8.94079,-16l-41.723685,0c-0.005961,0.003 -8.94079,5.19 -8.94079,16c0,14.251 17.881579,15.563 17.881579,20.001c0,4.999 -8.94079,5.187 -8.94079,9.999c0,0 7.450658,-2 11.921053,-2c2.887875,0 3.16653,2 8.94079,2s6.054405,-2 8.94079,-2c4.470395,0 11.921053,2 11.921053,2c0,-4.813 -8.94079,-5 -8.94079,-9.999c0,-4.438 17.881579,-5.75 17.881579,-20.001z"/>
  <path id="svg_4" fill="#4D4D4D" d="m60,46.001l-56,0c-2.209,0 -4,1.79 -4,3.999c0,2.21 1.791,4.001 4,4.001l56,0c2.209,0 4,-1.791 4,-4.001c0,-2.209 -1.791,-3.999 -4,-3.999z"/>
  <path stroke="null" id="svg_6" fill-rule="evenodd" clip-rule="evenodd" fill="#BF8D5E" d="m30.342106,43.934211c-0.748105,0 -1.355263,0.586526 -1.355263,1.309865c0,-0.723339 -0.607158,-1.309865 -1.355263,-1.309865s-1.355263,0.586526 -1.355263,1.309865l0,2.617766c0,0.722684 0.607158,1.309211 1.355263,1.309211s1.355263,-0.586526 1.355263,-1.309211c0,0.722684 0.607158,1.309211 1.355263,1.309211s1.355263,-0.586526 1.355263,-1.309211l0,-2.617766c0,-0.723339 -0.607158,-1.309865 -1.355263,-1.309865zm8.131579,0c-0.748105,0 -1.355263,0.586526 -1.355263,1.309865c0,-0.723339 -0.607158,-1.309865 -1.355263,-1.309865s-1.355263,0.586526 -1.355263,1.309865l0,2.617766c0,0.722684 0.607158,1.309211 1.355263,1.309211s1.355263,-0.586526 1.355263,-1.309211c0,0.722684 0.607158,1.309211 1.355263,1.309211s1.355263,-0.586526 1.355263,-1.309211l0,-2.617766c0,-0.723339 -0.607158,-1.309865 -1.355263,-1.309865z"/>
  <path stroke="null" id="svg_8" fill-rule="evenodd" clip-rule="evenodd" fill="#A67A51" d="m47.83078,10.804211c0.483306,-2.634 0.925799,-5.753 0.925799,-8.37c-2.419752,0 -5.519353,3.697 -7.256033,6.064c-0.439271,-0.042 -0.884987,-0.064 -1.336072,-0.064c-3.305812,0 -6.310901,1.169 -8.592105,3.073c-2.281204,-1.904 -5.286293,-3.073 -8.592105,-3.073c-0.451086,0 -0.896801,0.022 -1.336072,0.064c-1.736679,-2.367 -4.836281,-6.064 -7.256033,-6.064c0,2.617 0.442493,5.736 0.925799,8.369c-3.162969,2.187 -5.221852,5.681 -5.221852,9.631c0,6.628 5.769598,12 12.888157,12c3.305812,0 6.310901,-1.169 8.592105,-3.073c2.281204,1.904 5.286293,3.073 8.592105,3.073c7.117485,0 12.888157,-5.372 12.888157,-12c0,-3.95 -2.058883,-7.443 -5.221852,-9.63z"/>
  <path stroke="null" id="svg_10" fill-rule="evenodd" clip-rule="evenodd" fill="#E6E6E6" d="m39.736842,10.197368c-4.418,0 -8,2.368362 -8,5.289474c0,-2.921112 -3.582,-5.289474 -8,-5.289474s-8,2.368362 -8,5.289474c0,2.921773 3.582,5.290135 8,5.290135c1.933,0 3.705,-0.453572 5.088,-1.207322l2.912,3.851398l2.912,-3.851398c1.383,0.754411 3.155,1.207322 5.088,1.207322c4.418,0 8,-2.368362 8,-5.290135c0,-2.921112 -3.582,-5.289474 -8,-5.289474z"/>
  <path stroke="null" id="svg_12" fill-rule="evenodd" clip-rule="evenodd" fill="#4D4D4D" d="m26.138156,15.907888c-2.408827,0 -4.361842,0.627442 -4.361842,1.401322s1.953015,1.401322 4.361842,1.401322s4.361842,-0.627442 4.361842,-1.401322s-1.953015,-1.401322 -4.361842,-1.401322zm17.44737,0c-2.408827,0 -4.361842,0.627442 -4.361842,1.401322s1.953015,1.401322 4.361842,1.401322s4.361842,-0.627442 4.361842,-1.401322s-1.953015,-1.401322 -4.361842,-1.401322z"/>
 </g>
</svg>